<svg xmlns="http://www.w3.org/2000/svg" viewBox="0 0 64 64">
  <rect width="64" height="64" rx="12" fill="#0a0d10"/>
  <path fill="#eef2f0" transform="translate(15.00 42.84) scale(0.04224 -0.04224)" d="M0 0V10H4Q40 10 62 32Q84 54 84 90V660Q84 696 62 718Q40 740 4 740H0V750H320V740H318Q282 740 260 718Q238 696 238 660V428H568V660Q568 696 546 718Q524 740 488 740H485V750H805V740H802Q766 740 744 718Q722 696 722 660V90Q722 54 744 32Q766 10 802 10H805V0H485V10H488Q524 10 546 32Q568 54 568 90V414H238V90Q238 54 260 32Q282 10 318 10H320V0Z"/>
  <rect x="12" y="50" width="40" height="4" fill="#3fb8b5"/>
</svg>
